<?xml version="1.0" standalone="no"?>
<!DOCTYPE svg PUBLIC "-//W3C//DTD SVG 20010904//EN"
 "http://www.w3.org/TR/2001/REC-SVG-20010904/DTD/svg10.dtd">
<svg version="1.0" xmlns="http://www.w3.org/2000/svg"
 width="16.000000pt" height="16.000000pt" viewBox="0 0 16.000000 16.000000"
 preserveAspectRatio="xMidYMid meet">
<metadata>
Created by potrace 1.11, written by Peter Selinger 2001-2013
</metadata>
<g transform="translate(0.000000,16.000000) scale(0.004923,-0.004923)"
fill="#000000" stroke="none">
<path d="M1595 3140 c-31 -12 -649 -636 -658 -665 -17 -49 2 -78 141 -217 75
-76 139 -138 142 -138 4 0 15 33 24 72 10 40 24 87 31 106 22 51 121 197 210
307 45 55 94 123 110 150 99 169 246 201 351 76 23 -27 29 -46 33 -95 9 -141
8 -154 -22 -183 -26 -26 -27 -26 -27 -6 0 17 -7 22 -41 25 -22 2 -42 1 -45 -3
-2 -4 -5 -49 -6 -101 -2 -107 -17 -162 -64 -234 -36 -54 -131 -155 -170 -181
-24 -15 -24 -16 -6 -29 11 -7 31 -15 46 -18 51 -9 71 -41 54 -86 l-9 -25 -15
28 c-9 15 -25 32 -37 36 -31 12 -74 -15 -81 -51 -6 -33 -16 -36 -33 -9 -10 16
-9 24 9 46 23 29 23 31 -12 40 -20 5 -34 -2 -65 -29 l-40 -35 108 -108 107
-108 340 340 c215 215 344 351 350 370 8 26 7 70 -2 81 -28 34 -645 644 -652
645 -44 5 -54 5 -71 -1z"/>
<path d="M765 2321 c-50 -32 -633 -624 -644 -653 -20 -54 -5 -80 133 -217
l133 -133 6 46 c7 49 53 150 95 205 15 21 49 44 87 62 67 30 125 87 125 122 0
55 23 103 70 147 26 25 55 60 64 78 23 44 40 36 44 -21 3 -43 6 -48 37 -61 18
-8 38 -24 45 -35 6 -12 20 -21 30 -21 37 0 17 -63 -29 -94 l-27 -19 0 -121 1
-121 -35 -54 -35 -54 -3 -139 -4 -139 32 -10 c17 -6 29 -16 25 -23 -3 -6 -8
-19 -11 -29 -4 -9 -17 -20 -31 -23 -32 -8 -72 21 -97 70 l-18 38 -18 -29 c-17
-28 -17 -28 8 -33 33 -7 53 -37 32 -50 -8 -5 -28 -10 -45 -10 l-30 0 31 -31
c37 -37 90 -47 131 -25 15 8 179 166 363 350 l335 336 -350 350 c-383 383
-384 384 -450 341z"/>
<path d="M2410 2334 c-8 -2 -171 -161 -363 -352 l-347 -347 353 -353 c315
-314 356 -352 384 -352 18 0 42 5 55 12 13 7 117 108 233 225 l209 213 -144
-1 c-193 -2 -200 -4 -227 -59 -35 -72 -50 -111 -63 -168 -14 -59 -28 -71 -68
-52 l-27 12 28 22 c27 22 28 27 34 132 5 99 4 115 -16 159 -25 56 -26 58 -36
135 -7 50 -24 104 -60 185 -7 17 -15 38 -19 48 -4 13 -16 17 -50 17 -57 0 -76
18 -76 76 l0 44 41 0 c33 0 49 7 80 35 72 65 152 41 184 -54 18 -54 64 -132
103 -173 41 -44 105 -56 320 -60 124 -2 192 1 192 7 0 6 -143 153 -318 328
-277 277 -322 318 -352 322 -19 2 -42 2 -50 -1z"/>
<path d="M1277 1211 l-348 -348 3 -47 c3 -46 3 -46 323 -366 328 -329 350
-347 406 -328 14 4 169 152 345 328 319 320 319 320 322 366 l3 47 -348 348
c-191 192 -350 349 -353 349 -3 0 -162 -157 -353 -349z m619 -101 c140 -140
257 -263 260 -274 2 -10 -3 -30 -11 -45 -7 -14 -119 -131 -247 -259 -213 -211
-237 -232 -268 -232 -31 0 -55 21 -268 233 -231 230 -263 267 -258 301 3 19
516 538 528 533 4 -1 123 -117 264 -257z"/>
</g>
</svg>
